<svg xmlns="http://www.w3.org/2000/svg" xmlns:xlink="http://www.w3.org/1999/xlink" width="81" zoomAndPan="magnify" viewBox="0 0 60.75 30.750001" height="41" preserveAspectRatio="xMidYMid meet" version="1.0"><defs><clipPath id="3a40a630bd"><path d="M 0.855469 9 L 4 9 L 4 12 L 0.855469 12 Z M 0.855469 9 " clip-rule="nonzero"/></clipPath><clipPath id="6dac1b888e"><path d="M 57 9 L 59.867188 9 L 59.867188 12 L 57 12 Z M 57 9 " clip-rule="nonzero"/></clipPath><clipPath id="b215c8bcd5"><path d="M 11 16 L 50 16 L 50 30.503906 L 11 30.503906 Z M 11 16 " clip-rule="nonzero"/></clipPath></defs><path fill="#80cc28" d="M 8.230469 6.707031 L 10.660156 12.058594 C 13.628906 5.683594 7.089844 3.660156 7.089844 3.660156 L 7.097656 3.675781 C 6.96875 3.882812 3.617188 9.507812 9.855469 12.332031 L 8.230469 6.707031 " fill-opacity="1" fill-rule="nonzero"/><path fill="#80cc28" d="M 4.257812 13.238281 L 8.691406 14.027344 C 4.523438 17.441406 1.78125 12.972656 1.78125 12.972656 L 1.792969 12.972656 C 1.921875 12.839844 5.460938 9.28125 8.742188 13.378906 L 4.257812 13.238281 " fill-opacity="1" fill-rule="nonzero"/><path fill="#80cc28" d="M 12.097656 14.378906 C 12.097656 15.011719 11.585938 15.519531 10.957031 15.519531 C 10.328125 15.519531 9.816406 15.011719 9.816406 14.378906 C 9.816406 13.75 10.328125 13.238281 10.957031 13.238281 C 11.585938 13.238281 12.097656 13.75 12.097656 14.378906 " fill-opacity="1" fill-rule="nonzero"/><g clip-path="url(#3a40a630bd)"><path fill="#80cc28" d="M 1.992188 11.515625 C 1.363281 11.515625 0.851562 11.003906 0.851562 10.375 C 0.851562 9.742188 1.363281 9.230469 1.992188 9.230469 C 2.625 9.230469 3.136719 9.742188 3.136719 10.375 C 3.136719 11.003906 2.625 11.515625 1.992188 11.515625 " fill-opacity="1" fill-rule="nonzero"/></g><path fill="#80cc28" d="M 13.050781 5.683594 C 13.390625 6.023438 13.390625 6.574219 13.050781 6.917969 C 12.707031 7.257812 12.15625 7.257812 11.816406 6.917969 C 11.476562 6.574219 11.476562 6.023438 11.816406 5.683594 C 12.15625 5.339844 12.707031 5.339844 13.050781 5.683594 " fill-opacity="1" fill-rule="nonzero"/><path fill="#80cc28" d="M 5.574219 9.175781 C 5.734375 9.339844 5.734375 9.597656 5.574219 9.757812 C 5.414062 9.917969 5.152344 9.917969 4.992188 9.757812 C 4.832031 9.597656 4.832031 9.339844 4.992188 9.175781 C 5.152344 9.015625 5.414062 9.015625 5.574219 9.175781 " fill-opacity="1" fill-rule="nonzero"/><path fill="#80cc28" d="M 3.195312 15.761719 C 3.492188 15.761719 3.734375 16.003906 3.734375 16.300781 C 3.734375 16.597656 3.492188 16.839844 3.195312 16.839844 C 2.898438 16.839844 2.65625 16.597656 2.65625 16.300781 C 2.65625 16.003906 2.898438 15.761719 3.195312 15.761719 " fill-opacity="1" fill-rule="nonzero"/><path fill="#80cc28" d="M 52.488281 6.707031 L 50.058594 12.058594 C 47.089844 5.683594 53.628906 3.660156 53.628906 3.660156 L 53.625 3.675781 C 53.75 3.882812 57.101562 9.507812 50.863281 12.332031 L 52.488281 6.707031 " fill-opacity="1" fill-rule="nonzero"/><path fill="#80cc28" d="M 56.460938 13.238281 L 52.03125 14.027344 C 56.195312 17.441406 58.9375 12.972656 58.9375 12.972656 L 58.925781 12.972656 C 58.796875 12.839844 55.257812 9.28125 51.976562 13.378906 L 56.460938 13.238281 " fill-opacity="1" fill-rule="nonzero"/><path fill="#80cc28" d="M 48.621094 14.378906 C 48.621094 15.011719 49.132812 15.519531 49.761719 15.519531 C 50.390625 15.519531 50.902344 15.011719 50.902344 14.378906 C 50.902344 13.75 50.390625 13.238281 49.761719 13.238281 C 49.132812 13.238281 48.621094 13.75 48.621094 14.378906 " fill-opacity="1" fill-rule="nonzero"/><g clip-path="url(#6dac1b888e)"><path fill="#80cc28" d="M 58.726562 11.515625 C 59.355469 11.515625 59.867188 11.003906 59.867188 10.375 C 59.867188 9.742188 59.355469 9.234375 58.726562 9.234375 C 58.09375 9.234375 57.582031 9.742188 57.582031 10.375 C 57.582031 11.003906 58.09375 11.515625 58.726562 11.515625 " fill-opacity="1" fill-rule="nonzero"/></g><path fill="#80cc28" d="M 47.667969 5.683594 C 47.328125 6.023438 47.328125 6.574219 47.667969 6.917969 C 48.011719 7.257812 48.5625 7.257812 48.902344 6.917969 C 49.246094 6.574219 49.246094 6.023438 48.902344 5.683594 C 48.5625 5.339844 48.011719 5.339844 47.667969 5.683594 " fill-opacity="1" fill-rule="nonzero"/><path fill="#80cc28" d="M 55.144531 9.179688 C 54.984375 9.339844 54.984375 9.597656 55.144531 9.757812 C 55.304688 9.921875 55.566406 9.921875 55.726562 9.757812 C 55.886719 9.597656 55.886719 9.339844 55.726562 9.179688 C 55.566406 9.015625 55.304688 9.015625 55.144531 9.179688 " fill-opacity="1" fill-rule="nonzero"/><path fill="#80cc28" d="M 57.523438 15.761719 C 57.226562 15.761719 56.984375 16.003906 56.984375 16.300781 C 56.984375 16.597656 57.226562 16.839844 57.523438 16.839844 C 57.820312 16.839844 58.0625 16.597656 58.0625 16.300781 C 58.0625 16.003906 57.820312 15.761719 57.523438 15.761719 " fill-opacity="1" fill-rule="nonzero"/><path fill="#f68712" d="M 23.199219 17.96875 L 22.914062 22.664062 C 23.746094 23.089844 24.613281 23.441406 25.515625 23.71875 L 25.160156 17.96875 C 25.042969 16.019531 25.664062 14.066406 27 12.640625 C 27.644531 11.953125 28.042969 11.023438 28.042969 10.003906 L 28.042969 0.0117188 L 26.9375 0.0117188 L 26.9375 8.59375 C 26.9375 8.898438 26.691406 9.144531 26.386719 9.144531 C 26.082031 9.144531 25.835938 8.898438 25.835938 8.59375 L 25.835938 0.0117188 L 24.734375 0.0117188 L 24.734375 8.59375 C 24.734375 8.898438 24.484375 9.144531 24.179688 9.144531 C 23.875 9.144531 23.628906 8.898438 23.628906 8.59375 L 23.628906 0.0117188 L 22.527344 0.0117188 L 22.527344 8.59375 C 22.527344 8.898438 22.28125 9.144531 21.976562 9.144531 C 21.671875 9.144531 21.425781 8.898438 21.425781 8.59375 L 21.425781 0.0117188 L 20.320312 0.0117188 L 20.320312 10.003906 C 20.320312 11.023438 20.71875 11.953125 21.363281 12.640625 C 22.699219 14.066406 23.320312 16.019531 23.199219 17.96875 " fill-opacity="1" fill-rule="nonzero"/><path fill="#f68712" d="M 34.851562 17.851562 L 34.476562 23.925781 C 35.382812 23.691406 36.265625 23.382812 37.113281 23 L 36.796875 17.851562 C 36.683594 16.007812 37.28125 14.179688 38.507812 12.804688 C 39.652344 11.519531 40.398438 9.433594 40.398438 7.082031 C 40.398438 3.175781 38.351562 0.0117188 35.824219 0.0117188 C 33.296875 0.0117188 31.25 3.175781 31.25 7.082031 C 31.25 9.433594 31.992188 11.519531 33.136719 12.804688 C 34.367188 14.179688 34.964844 16.007812 34.851562 17.851562 " fill-opacity="1" fill-rule="nonzero"/><g clip-path="url(#b215c8bcd5)"><path fill="#f68712" d="M 47.988281 17.164062 C 47.972656 17.15625 47.957031 17.148438 47.941406 17.140625 C 46.824219 16.570312 45.445312 16.910156 44.746094 17.953125 C 41.34375 23.027344 35.851562 25.566406 30.359375 25.566406 C 24.867188 25.566406 19.375 23.027344 15.972656 17.953125 C 15.273438 16.910156 13.894531 16.570312 12.777344 17.140625 C 12.761719 17.148438 12.746094 17.15625 12.730469 17.164062 C 11.402344 17.839844 10.949219 19.53125 11.777344 20.769531 C 16.167969 27.335938 23.265625 30.621094 30.359375 30.621094 C 37.453125 30.621094 44.550781 27.335938 48.941406 20.769531 C 49.769531 19.53125 49.316406 17.839844 47.988281 17.164062 " fill-opacity="1" fill-rule="nonzero"/></g></svg>